<?xml version="1.0" encoding="utf-8"?>
<!-- Generator: Adobe Illustrator 24.1.1, SVG Export Plug-In . SVG Version: 6.00 Build 0)  -->
<svg version="1.1" id="Layer_1" xmlns="http://www.w3.org/2000/svg" xmlns:xlink="http://www.w3.org/1999/xlink" x="0px" y="0px"
	 viewBox="0 0 354 199" style="enable-background:new 0 0 354 199;" xml:space="preserve">
<style type="text/css">
	.st0{fill:#FFBC00;}
</style>
<path class="st0" d="M343.9,133.4V2.3h-213v29.2H77.8L58.2,66.1L47.9,84.3l-37.1,6.8v42.2H2v0h0v31.1h42.8
	c1.9,18.1,17.2,32.2,35.8,32.2s33.9-14.1,35.8-32.2H234c1.9,18.1,17.2,32.2,35.8,32.2c18.6,0,33.9-14.1,35.8-32.2H352v-31.1H343.9z
	 M138.8,10.2H336v5.1H138.8V10.2z M18.7,109.9h7.1v23.5h-3.6v0h-3.5V109.9z M30.3,156.5C30.3,156.5,30.3,156.5,30.3,156.5H9.9v-15.3
	h6.1l6.1,0v0H34C32,146,30.7,151.2,30.3,156.5z M108.5,164.5c-1.9,13.7-13.6,24.3-27.8,24.3s-26-10.6-27.8-24.3
	c-0.2-1.2-0.3-2.5-0.3-3.8c0-0.1,0-0.1,0-0.2c0-1.3,0.1-2.7,0.3-4c0,0,0,0,0,0v0c0.9-5.9,3.6-11.2,7.5-15.3c1.4-1.5,3-2.8,4.7-4
	c2.8-1.8,5.8-3.2,9.2-4c2.1-0.5,4.2-0.7,6.4-0.7c2.2,0,4.3,0.3,6.4,0.7c3.3,0.8,6.4,2.1,9.2,4c1.7,1.1,3.3,2.5,4.7,4
	c3.9,4.1,6.6,9.4,7.5,15.3c0.2,1.3,0.3,2.6,0.3,4c0,0.1,0,0.1,0,0.2C108.7,162,108.6,163.2,108.5,164.5z M123.1,156.5h-6.6
	c0,0,0,0,0,0c-0.6-5.6-2.6-10.8-5.4-15.3c-0.9-1.4-1.9-2.7-2.9-4c-1.2-1.4-2.5-2.7-4-4c-6.3-5.4-14.5-8.7-23.4-8.7
	s-17.1,3.3-23.4,8.7c-1.4,1.2-2.7,2.5-4,4c-1.1,1.3-2.1,2.6-2.9,4c-2.9,4.5-4.8,9.7-5.4,15.3v0c0,0,0,0,0,0h-6.6v0
	c0.5-5.5,2.1-10.6,4.5-15.3c0.7-1.4,1.5-2.7,2.3-4c0.9-1.4,1.9-2.7,3-4c7.8-9.3,19.6-15.3,32.6-15.3c13.1,0,24.8,5.9,32.6,15.3
	c1.1,1.3,2,2.6,3,4c0.8,1.3,1.6,2.6,2.3,4C121,145.9,122.5,151.1,123.1,156.5C123.1,156.5,123.1,156.5,123.1,156.5z M80.7,110.2
	c-17.8,0-33.5,9.2-42.5,23.2h-4.4V102h-15v-4.2L53,91.5l14.3-25.4l15.1-26.7h48.4v93.9h-7.7C114.2,119.4,98.5,110.2,80.7,110.2z
	 M221,147.7c-0.3,1.3-0.6,2.6-0.9,4c-0.2,1.3-0.4,2.6-0.6,4c0,0.3,0,0.6-0.1,0.9l-88.5,0c0,0,0,0,0,0c0-0.3,0-0.6-0.1-0.9
	c0-0.3-0.1-0.5-0.1-0.8c-0.5-4.7-1.7-9.3-3.5-13.5h95.8C222.3,143.4,221.6,145.5,221,147.7z M297.6,164.5
	c-1.8,13.7-13.6,24.3-27.8,24.3s-26-10.6-27.8-24.3c-0.2-1.2-0.3-2.5-0.3-3.8c0-0.1,0-0.1,0-0.2c0-1.3,0.1-2.7,0.3-4
	c0-0.3,0.1-0.6,0.2-0.9c0.2-1.4,0.6-2.7,1-4c0.5-1.4,1-2.7,1.7-4c1.2-2.4,2.8-4.5,4.6-6.4c1.4-1.5,3-2.8,4.7-4
	c2.7-1.8,5.8-3.2,9.2-4c2.1-0.5,4.2-0.7,6.4-0.7c2.2,0,4.3,0.3,6.4,0.7c3.3,0.8,6.4,2.1,9.2,4c1.7,1.1,3.3,2.5,4.7,4
	c1.8,1.9,3.4,4.1,4.6,6.4c0.7,1.3,1.2,2.6,1.7,4c0.4,1.3,0.8,2.6,1,4c0.1,0.3,0.1,0.6,0.2,0.9c0.2,1.3,0.3,2.6,0.3,4
	c0,0.1,0,0.1,0,0.2C297.9,162,297.8,163.2,297.6,164.5z M312.2,156.5h-6.6l0,0c0-0.3-0.1-0.6-0.1-0.9c-0.2-1.3-0.4-2.7-0.8-4
	c-0.3-1.4-0.8-2.7-1.3-4c-0.9-2.3-2-4.4-3.3-6.4c-0.9-1.4-1.9-2.7-2.9-4c-1.2-1.4-2.5-2.7-4-4c-6.3-5.4-14.5-8.7-23.4-8.7
	c-8.9,0-17.1,3.3-23.4,8.7c-1.4,1.2-2.7,2.5-4,4c-1.1,1.3-2.1,2.6-2.9,4c-1.3,2-2.4,4.2-3.3,6.4c-0.5,1.3-0.9,2.6-1.3,4
	c-0.3,1.3-0.6,2.6-0.8,4c0,0.3-0.1,0.6-0.1,0.9c0,0,0,0,0,0h-6.6c0,0,0,0,0,0c0-0.3,0.1-0.6,0.1-0.9c0.2-1.3,0.4-2.7,0.7-4
	c0.3-1.3,0.6-2.7,1.1-4c0.7-2.2,1.6-4.4,2.7-6.4c0.7-1.4,1.5-2.7,2.3-4c0.9-1.4,1.9-2.7,3-4c7.8-9.3,19.5-15.3,32.6-15.3
	c13.1,0,24.8,5.9,32.6,15.3c1.1,1.3,2,2.6,3,4c0.8,1.3,1.6,2.6,2.3,4c1.1,2.1,2,4.2,2.7,6.4c0.4,1.3,0.8,2.6,1.1,4
	c0.3,1.3,0.5,2.6,0.7,4C312.2,155.9,312.2,156.2,312.2,156.5L312.2,156.5z M269.8,110.2c-17.8,0-33.5,9.2-42.5,23.2h-88.6V23.2H336
	v110.1h-23.6C303.3,119.4,287.7,110.2,269.8,110.2z M344.1,156.5h-23.9c0-0.3,0-0.6-0.1-0.9c-0.1-1.3-0.3-2.7-0.6-4
	c-0.2-1.3-0.5-2.7-0.9-4c-0.6-2.2-1.3-4.3-2.2-6.4h27.6V156.5z M97.4,156.5c-1.9-7.5-8.7-13.1-16.8-13.1s-14.9,5.6-16.8,13.1v0
	c-0.3,1.3-0.5,2.6-0.5,4c0,0.1,0,0.1,0,0.2c0,1.3,0.2,2.6,0.4,3.8c1.7,7.7,8.6,13.5,16.9,13.5s15.1-5.8,16.9-13.5
	c0.3-1.2,0.4-2.5,0.4-3.8c0-0.1,0-0.1,0-0.2C97.9,159.1,97.7,157.8,97.4,156.5z M83.6,164.5c-0.8,0.7-1.9,1.1-3,1.1
	c-1.1,0-2.2-0.4-3-1.1c-1.1-0.9-1.8-2.2-1.8-3.8c0-0.1,0-0.1,0-0.2c0.1-1.7,1-3.2,2.4-4c0,0,0,0,0,0c0.7-0.4,1.5-0.7,2.4-0.7
	c0.9,0,1.7,0.3,2.4,0.7c0,0,0,0,0,0c1.4,0.8,2.3,2.3,2.4,4c0,0.1,0,0.1,0,0.2C85.5,162.2,84.8,163.6,83.6,164.5z M286.6,156.5
	c-0.1-0.3-0.1-0.6-0.2-0.9c-0.4-1.4-1.1-2.7-1.8-4c-0.9-1.5-2-2.8-3.3-4c-3-2.7-7-4.3-11.4-4.3c-4.4,0-8.3,1.6-11.4,4.3
	c-1.3,1.1-2.4,2.5-3.3,4c-0.8,1.2-1.4,2.6-1.8,4c-0.1,0.3-0.2,0.6-0.2,0.9c-0.3,1.3-0.5,2.6-0.5,4c0,0.1,0,0.1,0,0.2
	c0,1.3,0.2,2.6,0.4,3.8c1.7,7.7,8.6,13.5,16.9,13.5c8.3,0,15.1-5.8,16.9-13.5c0.3-1.2,0.4-2.5,0.4-3.8c0-0.1,0-0.1,0-0.2
	C287.1,159.1,286.9,157.8,286.6,156.5z M272.8,164.5c-0.8,0.7-1.9,1.1-3,1.1c-1.1,0-2.2-0.4-3-1.1c-1.1-0.9-1.8-2.2-1.8-3.8
	c0-0.1,0-0.1,0-0.2c0.1-1.7,1-3.2,2.4-4c0.7-0.4,1.5-0.7,2.4-0.7c0.9,0,1.7,0.3,2.4,0.7c1.4,0.8,2.3,2.3,2.4,4c0,0.1,0,0.1,0,0.2
	C274.7,162.2,273.9,163.6,272.8,164.5z M98.2,105.5h24.5v-7.9H98.2V105.5z M75,66.1L60.6,91.5H124V46.3H86.2L75,66.1z"/>
</svg>
