<?xml version="1.0" encoding="utf-8"?>
<!-- Generator: Adobe Illustrator 24.1.1, SVG Export Plug-In . SVG Version: 6.00 Build 0)  -->
<svg version="1.1" id="Layer_1" xmlns="http://www.w3.org/2000/svg" xmlns:xlink="http://www.w3.org/1999/xlink" x="0px" y="0px"
	 viewBox="0 0 223.1 328.3" style="enable-background:new 0 0 223.1 328.3;" xml:space="preserve">
<style type="text/css">
	.st0{fill:#231F20;}
	.st1{fill:#5E5E5E;}
</style>
<path class="st0" d="M223.1,54.9H0v-28h216.6c3.5,0,6.4,2.9,6.4,6.4V54.9z"/>
<path class="st0" d="M203.6,46.2H19.5V19h177.9c3.4,0,6.2,2.8,6.2,6.2V46.2z"/>
<path class="st0" d="M162.4,12.4H60.7V0l98.8,0c1.6,0,2.8,1.3,2.8,2.8V12.4z"/>
<g>
	<circle class="st1" cx="171.2" cy="297.4" r="23.4"/>
	<path class="st0" d="M171.2,328.3c-17,0-30.9-13.9-30.9-30.9c0-17,13.9-30.9,30.9-30.9s30.9,13.9,30.9,30.9
		C202.1,314.4,188.2,328.3,171.2,328.3z M171.2,281.4c-8.8,0-16,7.2-16,16c0,8.8,7.2,16,16,16c8.8,0,16-7.2,16-16
		C187.2,288.6,180,281.4,171.2,281.4z"/>
</g>
<path class="st0" d="M14.2,61.5l31.3,254.6c0.9,7,6.8,12.2,13.8,12.2h90.8c-9.8-6.8-16.3-18.1-16.3-30.9c0-20.6,16.8-37.4,37.4-37.4
	c4.6,0,8.9,0.9,13,2.4l24.7-200.8H14.2z"/>
</svg>
